<?xml version="1.0" encoding="utf-8"?>
<!-- Generator: Adobe Illustrator 26.2.1, SVG Export Plug-In . SVG Version: 6.00 Build 0)  -->
<svg version="1.1" id="artwork" xmlns="http://www.w3.org/2000/svg" xmlns:xlink="http://www.w3.org/1999/xlink" x="0px" y="0px"
	 viewBox="0 0 236.94 100.72" style="enable-background:new 0 0 236.94 100.72;" xml:space="preserve">
<style type="text/css">
	.st0{fill:#3EE5BD;}
	.st1{fill:#27D4DA;}
	.st2{fill:#0FC3FF;}
	.st3{fill:#FFFFFF;}
</style>
<g>
	<path class="st0" d="M56.04,53.07c8.88,0,16.81-4.02,22.09-10.33c-3.34-12.2-14.51-21.17-27.77-21.17
		c-8.88,0-16.81,4.02-22.09,10.33C31.61,44.1,42.78,53.07,56.04,53.07z"/>
	<path class="st1" d="M42.67,65.63c0-12.33-7.75-22.84-18.63-26.95c-1.59,3.57-2.47,7.52-2.47,11.68c0,12.33,7.75,22.84,18.63,26.95
		C41.78,73.74,42.67,69.79,42.67,65.63z"/>
	<path class="st2" d="M41.85,77.88c2.69,0.83,5.55,1.28,8.51,1.28c13.45,0,24.75-9.23,27.92-21.7c-2.69-0.83-5.55-1.28-8.51-1.28
		C56.32,56.19,45.02,65.41,41.85,77.88z"/>
</g>
<g>
	<path class="st3" d="M106.26,61.82c-1.93,0-3.61-0.48-5.03-1.45c-1.43-0.96-2.53-2.28-3.32-3.96c-0.79-1.67-1.18-3.58-1.18-5.73
		c0-2.16,0.4-4.08,1.2-5.77c0.8-1.68,1.91-3.01,3.33-3.97c1.42-0.96,3.07-1.44,4.96-1.44c1.44,0,2.75,0.28,3.92,0.84
		c1.17,0.56,2.14,1.34,2.9,2.34c0.76,1.01,1.24,2.18,1.44,3.52h-2.53c-0.26-1.22-0.89-2.26-1.89-3.12c-1-0.87-2.26-1.3-3.8-1.3
		c-1.37,0-2.59,0.37-3.65,1.12c-1.06,0.74-1.88,1.78-2.48,3.1c-0.59,1.32-0.89,2.86-0.89,4.6c0,1.75,0.29,3.3,0.87,4.64
		c0.58,1.34,1.4,2.39,2.45,3.15c1.05,0.76,2.29,1.14,3.7,1.14c0.96,0,1.83-0.18,2.62-0.54c0.79-0.36,1.46-0.87,1.99-1.54
		c0.54-0.66,0.9-1.46,1.09-2.37h2.53c-0.19,1.3-0.65,2.46-1.38,3.47c-0.73,1.02-1.68,1.81-2.85,2.39
		C109.09,61.53,107.76,61.82,106.26,61.82z"/>
	<path class="st3" d="M132.22,53.13V39.81h2.5v21.56h-2.5v-3.58h-0.2c-0.51,1.1-1.31,2.02-2.4,2.76c-1.09,0.74-2.43,1.1-4.01,1.1
		c-1.38,0-2.6-0.3-3.66-0.91c-1.07-0.6-1.9-1.49-2.51-2.66s-0.91-2.61-0.91-4.31V39.81h2.5v13.81c0,1.68,0.5,3.04,1.49,4.06
		c0.99,1.02,2.26,1.54,3.82,1.54c0.97,0,1.91-0.23,2.81-0.7c0.9-0.47,1.64-1.15,2.22-2.06C131.93,55.56,132.22,54.45,132.22,53.13z"
		/>
	<path class="st3" d="M140.26,61.37V39.81h2.43v3.31h0.18c0.43-1.09,1.18-1.96,2.25-2.63c1.07-0.67,2.29-1,3.64-1
		c0.21,0,0.44,0,0.69,0.01c0.25,0.01,0.46,0.02,0.63,0.03v2.54c-0.11-0.02-0.31-0.05-0.59-0.08c-0.28-0.04-0.59-0.06-0.91-0.06
		c-1.12,0-2.12,0.24-3,0.71c-0.88,0.47-1.57,1.13-2.07,1.96c-0.51,0.83-0.76,1.78-0.76,2.85v13.92H140.26z"/>
	<path class="st3" d="M154.23,61.37v-15.1v-6.46h2.51v21.56H154.23z"/>
	<path class="st3" d="M180.16,50.1c0-1.81-0.25-3.37-0.76-4.7c-0.51-1.32-1.19-2.42-2.06-3.3s-1.84-1.52-2.93-1.95
		c-1.09-0.43-2.21-0.64-3.38-0.64c-1.86,0-3.5,0.48-4.92,1.44c-1.42,0.96-2.53,2.28-3.33,3.97c-0.8,1.69-1.2,3.62-1.2,5.79
		c0,2.18,0.4,4.11,1.2,5.78c0.8,1.67,1.94,2.98,3.4,3.92s3.21,1.41,5.22,1.41c1.44,0,2.72-0.23,3.82-0.69
		c1.11-0.46,2.04-1.08,2.78-1.85c0.74-0.77,1.28-1.6,1.61-2.51l-2.37-0.77c-0.27,0.65-0.67,1.24-1.2,1.78
		c-0.53,0.54-1.18,0.97-1.95,1.28c-0.77,0.32-1.67,0.48-2.69,0.48c-1.5,0-2.79-0.35-3.89-1.05c-1.09-0.7-1.94-1.69-2.53-2.97
		c-0.56-1.2-0.84-2.6-0.88-4.18h16.04V50.1z M164.14,49.13c0.08-1.2,0.35-2.32,0.86-3.36c0.59-1.2,1.4-2.16,2.44-2.89
		c1.04-0.73,2.24-1.09,3.61-1.09c1.29,0,2.43,0.32,3.42,0.97c0.99,0.65,1.76,1.52,2.32,2.63c0.56,1.11,0.84,2.36,0.84,3.74H164.14z"
		/>
	<path class="st3" d="M197.86,61.86c-1.3,0-2.49-0.25-3.57-0.77c-1.08-0.51-1.93-1.25-2.57-2.22c-0.64-0.97-0.95-2.15-0.95-3.53
		c0-1.07,0.2-1.97,0.6-2.7c0.4-0.73,0.97-1.33,1.71-1.8c0.74-0.47,1.61-0.84,2.63-1.11c1.01-0.27,2.12-0.48,3.34-0.63
		c1.21-0.15,2.23-0.28,3.07-0.39c0.84-0.11,1.48-0.29,1.92-0.53c0.44-0.24,0.66-0.64,0.66-1.18V46.5c0-1.47-0.44-2.63-1.31-3.47
		c-0.88-0.85-2.13-1.27-3.77-1.27c-1.55,0-2.82,0.34-3.8,1.02s-1.66,1.49-2.06,2.41l-2.37-0.86c0.49-1.18,1.16-2.12,2.02-2.83
		s1.83-1.22,2.89-1.53s2.15-0.47,3.24-0.47c0.82,0,1.68,0.11,2.58,0.32c0.89,0.22,1.72,0.59,2.49,1.12c0.77,0.53,1.39,1.26,1.87,2.2
		c0.48,0.94,0.72,2.13,0.72,3.57v14.64h-2.5v-3.41h-0.15c-0.3,0.64-0.74,1.25-1.33,1.85c-0.59,0.6-1.33,1.09-2.22,1.47
		C200.1,61.67,199.05,61.86,197.86,61.86z M198.19,59.57c1.33,0,2.48-0.29,3.45-0.88c0.97-0.59,1.72-1.37,2.25-2.35
		c0.53-0.98,0.79-2.06,0.79-3.24v-3.12c-0.19,0.18-0.5,0.34-0.93,0.48c-0.43,0.14-0.94,0.26-1.5,0.37c-0.57,0.11-1.13,0.2-1.69,0.27
		c-0.56,0.08-1.07,0.14-1.52,0.2c-1.22,0.15-2.26,0.38-3.12,0.7c-0.86,0.32-1.52,0.76-1.98,1.31c-0.46,0.56-0.69,1.27-0.69,2.14
		c0,1.31,0.47,2.32,1.4,3.04C195.6,59.21,196.78,59.57,198.19,59.57z"/>
	<path class="st3" d="M157.3,34.45c0,0.5-0.2,0.95-0.53,1.27c-0.33,0.33-0.77,0.53-1.27,0.53s-0.95-0.2-1.27-0.53
		c-0.33-0.33-0.53-0.77-0.53-1.27s0.2-0.95,0.53-1.27s0.77-0.53,1.27-0.53s0.95,0.2,1.27,0.53S157.3,33.95,157.3,34.45z"/>
	<path class="st3" d="M212.87,61.37v-15.1v-6.46h2.51v21.56H212.87z"/>
	<path class="st3" d="M215.94,34.45c0,0.5-0.2,0.95-0.53,1.27c-0.33,0.33-0.77,0.53-1.27,0.53c-0.5,0-0.95-0.2-1.27-0.53
		c-0.33-0.33-0.53-0.77-0.53-1.27s0.2-0.95,0.53-1.27s0.77-0.53,1.27-0.53c0.5,0,0.95,0.2,1.27,0.53S215.94,33.95,215.94,34.45z"/>
</g>
</svg>
