<?xml version="1.0" encoding="utf-8"?>
<!-- Generator: Adobe Illustrator 26.2.1, SVG Export Plug-In . SVG Version: 6.00 Build 0)  -->
<svg version="1.1" id="artwork" xmlns="http://www.w3.org/2000/svg" xmlns:xlink="http://www.w3.org/1999/xlink" x="0px" y="0px"
	 viewBox="0 0 124.63 141.19" style="enable-background:new 0 0 124.63 141.19;" xml:space="preserve">
<style type="text/css">
	.st0{fill:#3EE5BD;}
	.st1{fill:#27D4DA;}
	.st2{fill:#0FC3FF;}
	.st3{fill:#FFFFFF;}
</style>
<g>
	<path class="st0" d="M69.41,55.99c11.09,0,21.01-5.02,27.62-12.91C92.85,27.82,78.9,16.61,62.32,16.61
		c-11.09,0-21.01,5.02-27.62,12.91C38.88,44.78,52.83,55.99,69.41,55.99z"/>
	<path class="st1" d="M52.7,71.7c0-15.41-9.68-28.55-23.29-33.69c-1.98,4.46-3.09,9.4-3.09,14.6c0,15.41,9.68,28.55,23.29,33.69
		C51.59,81.83,52.7,76.9,52.7,71.7z"/>
	<path class="st2" d="M51.68,87.01c3.36,1.04,6.93,1.6,10.64,1.6c16.82,0,30.94-11.53,34.89-27.12c-3.36-1.04-6.93-1.6-10.64-1.6
		C69.76,59.89,55.64,71.43,51.68,87.01z"/>
</g>
<g>
	<path class="st3" d="M23.95,124.92c-1.48,0-2.78-0.37-3.88-1.11c-1.1-0.74-1.95-1.76-2.56-3.05c-0.61-1.29-0.91-2.76-0.91-4.41
		c0-1.67,0.31-3.15,0.92-4.44c0.62-1.3,1.47-2.32,2.57-3.05c1.1-0.74,2.37-1.11,3.82-1.11c1.11,0,2.12,0.21,3.02,0.64
		c0.9,0.43,1.65,1.03,2.23,1.81c0.59,0.77,0.96,1.68,1.11,2.71h-1.95c-0.2-0.94-0.69-1.74-1.45-2.41c-0.77-0.67-1.74-1-2.93-1
		c-1.06,0-2,0.29-2.81,0.86c-0.81,0.57-1.45,1.37-1.91,2.39c-0.46,1.02-0.69,2.2-0.69,3.54c0,1.35,0.22,2.54,0.67,3.57
		c0.45,1.03,1.08,1.84,1.89,2.43c0.81,0.58,1.76,0.88,2.85,0.88c0.74,0,1.41-0.14,2.02-0.42c0.61-0.28,1.12-0.67,1.54-1.18
		c0.41-0.51,0.69-1.12,0.84-1.83h1.95c-0.14,1-0.5,1.89-1.06,2.68c-0.57,0.78-1.3,1.4-2.19,1.84
		C26.13,124.7,25.11,124.92,23.95,124.92z"/>
	<path class="st3" d="M43.96,118.23v-10.26h1.92v16.61h-1.92v-2.76h-0.15c-0.39,0.85-1.01,1.56-1.85,2.12
		c-0.84,0.57-1.88,0.85-3.09,0.85c-1.06,0-2-0.23-2.82-0.7s-1.47-1.15-1.94-2.05c-0.47-0.9-0.7-2.01-0.7-3.32v-10.76h1.92v10.64
		c0,1.3,0.38,2.34,1.15,3.13c0.76,0.79,1.74,1.18,2.94,1.18c0.75,0,1.47-0.18,2.16-0.54c0.69-0.36,1.26-0.89,1.71-1.58
		C43.73,120.1,43.96,119.25,43.96,118.23z"/>
	<path class="st3" d="M50.15,124.58v-16.61h1.87v2.55h0.14c0.33-0.84,0.91-1.51,1.74-2.03c0.83-0.52,1.76-0.77,2.81-0.77
		c0.16,0,0.34,0,0.53,0.01c0.19,0.01,0.36,0.01,0.49,0.02v1.96c-0.09-0.01-0.24-0.04-0.45-0.06c-0.22-0.03-0.45-0.04-0.7-0.04
		c-0.86,0-1.63,0.18-2.31,0.55c-0.67,0.36-1.21,0.87-1.6,1.51c-0.39,0.64-0.58,1.37-0.58,2.2v10.73H50.15z"/>
	<path class="st3" d="M60.91,124.58v-11.63v-4.98h1.94v16.61H60.91z"/>
	<path class="st3" d="M80.89,115.89c0-1.39-0.19-2.6-0.58-3.62c-0.39-1.02-0.92-1.87-1.58-2.54c-0.67-0.67-1.42-1.17-2.25-1.5
		c-0.84-0.33-1.71-0.49-2.61-0.49c-1.43,0-2.7,0.37-3.79,1.11c-1.09,0.74-1.95,1.76-2.56,3.06c-0.62,1.3-0.92,2.79-0.92,4.46
		c0,1.68,0.31,3.16,0.92,4.45c0.62,1.29,1.49,2.29,2.62,3.02c1.13,0.72,2.47,1.09,4.02,1.09c1.11,0,2.09-0.18,2.95-0.54
		c0.85-0.36,1.57-0.83,2.14-1.42c0.57-0.59,0.99-1.24,1.24-1.94l-1.83-0.59c-0.21,0.5-0.52,0.95-0.92,1.37
		c-0.41,0.41-0.91,0.74-1.5,0.99c-0.59,0.25-1.29,0.37-2.07,0.37c-1.15,0-2.15-0.27-3-0.81c-0.84-0.54-1.49-1.3-1.95-2.29
		c-0.43-0.92-0.65-2-0.68-3.22h12.36V115.89z M68.54,115.15c0.06-0.92,0.27-1.79,0.66-2.58c0.45-0.92,1.08-1.66,1.88-2.23
		c0.8-0.56,1.73-0.84,2.78-0.84c0.99,0,1.87,0.25,2.63,0.75c0.76,0.5,1.36,1.17,1.78,2.03c0.43,0.85,0.64,1.82,0.64,2.88H68.54z"/>
	<path class="st3" d="M94.52,124.96c-1,0-1.92-0.2-2.75-0.59c-0.83-0.39-1.49-0.96-1.98-1.71c-0.49-0.75-0.74-1.65-0.74-2.72
		c0-0.82,0.16-1.51,0.47-2.08c0.31-0.56,0.75-1.02,1.32-1.38c0.57-0.36,1.24-0.65,2.02-0.85c0.78-0.21,1.64-0.37,2.57-0.49
		c0.93-0.12,1.72-0.22,2.36-0.3c0.65-0.09,1.14-0.22,1.48-0.41c0.34-0.19,0.51-0.49,0.51-0.91v-0.39c0-1.13-0.34-2.02-1.01-2.68
		c-0.67-0.65-1.64-0.98-2.9-0.98c-1.2,0-2.17,0.26-2.93,0.79c-0.75,0.53-1.28,1.15-1.58,1.86l-1.83-0.66
		c0.38-0.91,0.89-1.63,1.56-2.18c0.66-0.54,1.41-0.94,2.23-1.18c0.82-0.24,1.65-0.36,2.5-0.36c0.63,0,1.3,0.08,1.98,0.25
		c0.69,0.17,1.33,0.45,1.92,0.86c0.59,0.41,1.07,0.97,1.44,1.7c0.37,0.72,0.55,1.64,0.55,2.75v11.28h-1.92v-2.63h-0.12
		c-0.23,0.49-0.57,0.97-1.03,1.43c-0.45,0.46-1.02,0.84-1.71,1.14C96.25,124.81,95.44,124.96,94.52,124.96z M94.78,123.19
		c1.02,0,1.91-0.23,2.66-0.68c0.75-0.45,1.33-1.06,1.74-1.81c0.41-0.75,0.61-1.58,0.61-2.49v-2.4c-0.14,0.14-0.38,0.26-0.72,0.37
		c-0.33,0.11-0.72,0.2-1.16,0.29c-0.44,0.08-0.87,0.15-1.3,0.21c-0.43,0.06-0.82,0.11-1.17,0.15c-0.94,0.12-1.74,0.3-2.4,0.54
		c-0.66,0.24-1.17,0.58-1.52,1.01c-0.35,0.43-0.53,0.98-0.53,1.65c0,1.01,0.36,1.79,1.08,2.34
		C92.78,122.92,93.69,123.19,94.78,123.19z"/>
	<path class="st3" d="M63.28,103.84c0,0.38-0.15,0.73-0.41,0.98c-0.25,0.25-0.6,0.41-0.98,0.41s-0.73-0.15-0.98-0.41
		c-0.25-0.25-0.41-0.6-0.41-0.98c0-0.38,0.15-0.73,0.41-0.98c0.25-0.25,0.6-0.41,0.98-0.41s0.73,0.15,0.98,0.41
		C63.12,103.11,63.28,103.46,63.28,103.84z"/>
	<path class="st3" d="M106.08,124.58v-11.64v-4.98h1.94v16.61H106.08z"/>
	<path class="st3" d="M108.45,103.84c0,0.38-0.15,0.73-0.41,0.98s-0.6,0.41-0.98,0.41c-0.38,0-0.73-0.15-0.98-0.41
		s-0.41-0.6-0.41-0.98c0-0.38,0.15-0.73,0.41-0.98s0.6-0.41,0.98-0.41c0.38,0,0.73,0.15,0.98,0.41S108.45,103.46,108.45,103.84z"/>
</g>
</svg>
