<?xml version="1.0" encoding="utf-8"?>
<!-- Generator: Adobe Illustrator 26.2.1, SVG Export Plug-In . SVG Version: 6.00 Build 0)  -->
<svg version="1.1" id="artwork" xmlns="http://www.w3.org/2000/svg" xmlns:xlink="http://www.w3.org/1999/xlink" x="0px" y="0px"
	 viewBox="0 0 1200 1200" style="enable-background:new 0 0 1200 1200;" xml:space="preserve">
<style type="text/css">
	.st0{fill:#2C2F54;}
	.st1{fill:#3EE5BD;}
	.st2{fill:#27D4DA;}
	.st3{fill:#0FC3FF;}
</style>
<rect y="0" class="st0" width="1200" height="1200"/>
<g>
	<path class="st1" d="M663.75,628.17c92.46,0,175.12-41.85,230.15-107.62C859.06,393.44,742.78,300,604.61,300
		c-92.46,0-175.12,41.85-230.15,107.62C409.3,534.73,525.58,628.17,663.75,628.17z"/>
	<path class="st2" d="M524.48,759.08c0-128.4-80.68-237.9-194.1-280.71c-16.52,37.19-25.77,78.32-25.77,121.63
		c0,128.39,80.68,237.9,194.1,280.71C515.22,843.52,524.48,802.39,524.48,759.08z"/>
	<path class="st3" d="M515.98,886.68C544,895.33,573.76,900,604.61,900c140.15,0,257.83-96.11,290.78-226.01
		c-28.01-8.65-57.77-13.32-88.63-13.32C666.62,660.67,548.94,756.78,515.98,886.68z"/>
</g>
</svg>
